<?xml version="1.0" encoding="utf-8"?>
<!-- Generator: Adobe Illustrator 24.0.1, SVG Export Plug-In . SVG Version: 6.00 Build 0)  -->
<svg version="1.1" id="Camada_1" xmlns="http://www.w3.org/2000/svg" xmlns:xlink="http://www.w3.org/1999/xlink" x="0px" y="0px"
	 viewBox="0 0 1080 1080" style="enable-background:new 0 0 1080 1080;" xml:space="preserve">
<style type="text/css">
	.st0{fill:#0800A0;}
</style>
<path class="st0" d="M914.3,703.5C934,663.9,945,616.4,945,563l0-128.2V246.6H766.3V568c0,58.2-28.7,86.9-68.9,86.9
	c-40.2,0-68-28.7-68-86.9V246.6H450.6V568c0,58.2-27.9,86.9-68,86.9s-68.8-28.7-68.8-86.9V350.7H135V563
	c0,160.7,97.6,268.1,237.7,268.1c64.8,0,119.7-23,160.7-71.3c44.3,48.3,104.1,71.3,173.8,71.3C799.8,831.2,874.7,783.2,914.3,703.5"
	/>
</svg>
