<svg id="Camada_1" data-name="Camada 1" xmlns="http://www.w3.org/2000/svg" viewBox="0 0 1000 1000"><title>img-placeholder</title><rect width="1000" height="1000" style="fill:#eee"/><path d="M662.5,650h-325A37.5,37.5,0,0,1,300,612.5v-225A37.5,37.5,0,0,1,337.5,350h325A37.5,37.5,0,0,1,700,387.5v225A37.5,37.5,0,0,1,662.5,650Zm-275-256.25a43.75,43.75,0,1,0,43.75,43.75A43.75,43.75,0,0,0,387.5,393.75ZM350,600H650V512.5l-68.37-68.37a9.38,9.38,0,0,0-13.26,0L462.5,550l-43.37-43.37a9.38,9.38,0,0,0-13.26,0L350,562.5Z" style="fill:#999"/></svg>