<svg id="Camada_1" data-name="Camada 1" xmlns="http://www.w3.org/2000/svg" viewBox="0 0 4009 1000"><defs><style>.cls-1{fill:#111;}.cls-2{fill:#eee;}</style></defs><title>Prancheta 1</title><rect class="cls-1" x="5.18" y="5.18" width="3998.4" height="989.64"/><path class="cls-1" d="M3998.58,10.18V989.82H10.18V10.18h3988.4m10-10H.18V999.82h4008.4V.18Z"/><path class="cls-2" d="M517.55,509.88Q561.29,550.59,561.3,616q0,45.66-22.07,81.05T473.79,753Q430.41,773.57,368,773.57q-57.84,0-109.2-18.65t-82.57-49.84l26.63-43.38q26.64,27.39,70.78,44.52T368,723.34q65.44,0,101.21-28.54T505,616q0-49.45-35.77-77.62T361.16,510.26H323.11V469.93L470.74,285H198.31V236.3H540.76v38.81L390.08,464.6Q473.78,469.16,517.55,509.88Z"/><path class="cls-2" d="M744.32,386.22q37.66-20.55,93.22-20.55v52.51l-12.93-.76q-63.18,0-98.93,38.81T689.91,565.05V769h-54V368.71h51.75V447.1Q706.64,406.77,744.32,386.22Z"/><path class="cls-2" d="M1409.8,626.69H1113L1049.09,769h-58.6L1234,236.3h55.55L1533.08,769h-59.36ZM1389.25,581,1261.4,294.9,1133.56,581Z"/><path class="cls-2" d="M1938.7,368.71V720.3q0,102-49.85,151.05t-150.29,49.09q-55.56,0-105.4-16.36t-81.05-45.28l27.4-41.1q28.9,25.86,70.39,40.34A263,263,0,0,0,1737,872.5q76.1,0,111.87-35.39t35.77-110v-51A162.87,162.87,0,0,1,1818.84,734q-40.72,19.8-90.18,19.79-56.33,0-102.35-24.73A182.64,182.64,0,0,1,1554,659.8q-26.25-44.52-26.25-100.84T1554,458.51A181.55,181.55,0,0,1,1625.93,390q45.66-24.34,102.73-24.35,51,0,92.08,20.55A165.86,165.86,0,0,1,1887,445.57V368.71ZM1812.37,687.19q35-18.63,54.41-52.13t19.41-76.1q0-42.6-19.41-75.72t-54-51.74q-34.63-18.64-78.76-18.65-43.38,0-78,18.27a132.61,132.61,0,0,0-54,51.74q-19.41,33.5-19.41,76.1t19.41,76.1a135.11,135.11,0,0,0,54,52.13q34.62,18.66,78,18.65T1812.37,687.19Z"/><path class="cls-2" d="M2400.62,585.6H2065.78q4.56,62.4,47.94,100.83t109.58,38.43q37.29,0,68.49-13.32a149.51,149.51,0,0,0,54-39.19l30.43,35q-26.64,32-66.58,48.7t-87.9,16.74q-61.64,0-109.2-26.25t-74.2-72.68q-26.64-46.41-26.63-105t25.49-105q25.48-46.41,70-72.3t100.07-25.87q55.54,0,99.69,25.87t69.25,71.92q25.13,46.05,25.12,105.4ZM2110.3,449q-39.21,36.92-44.52,96.26h283.85q-5.34-59.36-44.52-96.26t-97.79-36.91Q2149.48,412.09,2110.3,449Zm172.36-142.69-75.34-63.16L2132,306.31h-50.22L2179.93,212h54.79l98.17,94.36Z"/><path class="cls-2" d="M2797.47,409.43Q2842,453.2,2842,536.89V769h-54V542.22q0-62.39-31.2-95.12t-89-32.73q-64.69,0-102.36,38.43T2527.7,559V769h-54V368.71h51.75v73.82q22.07-36.52,61.26-56.69t90.94-20.17Q2753,365.67,2797.47,409.43Z"/><path class="cls-2" d="M3012.06,746.93a187.22,187.22,0,0,1-73.44-72.68Q2912,627.45,2912,568.86t26.63-105a188.2,188.2,0,0,1,73.44-72.3q46.8-25.86,106.16-25.87,51.74,0,92.46,20.17a153.63,153.63,0,0,1,64.31,59l-40.34,27.4q-19.8-29.68-50.22-44.52t-66.21-14.84q-43.38,0-78,19.41t-54,55.17q-19.41,35.77-19.41,81.43,0,46.42,19.41,81.8a136.94,136.94,0,0,0,54,54.8q34.62,19.39,78,19.4,35.76,0,66.21-14.46t50.22-44.14l40.34,27.4a153.09,153.09,0,0,1-64.69,59q-41.09,20.18-92.08,20.16Q3058.87,772.8,3012.06,746.93Z"/><path class="cls-2" d="M3342,269.78a37.36,37.36,0,0,1-11.42-27.39q0-15.22,11.42-26.64t28.15-11.41q16.74,0,28.16,11t11.41,26.26q0,16.74-11.41,28.15T3370.1,281.2Q3353.36,281.2,3342,269.78Zm.76,98.93h54V769h-54Z"/><path class="cls-2" d="M3769.63,404.86q41.84,39.21,41.85,116V769h-51.75V706.6q-18.26,31.21-53.65,48.7T3622,772.8q-67,0-106.54-32t-39.57-84.47q0-51,36.91-82.19T3630.36,543h127.09V518.63q0-51.74-28.92-78.76t-84.47-27A214.74,214.74,0,0,0,3571,425.41Q3536,438,3510.89,460l-24.36-40.33q30.43-25.86,73.06-39.95a284.52,284.52,0,0,1,89.8-14.08Q3727.75,365.67,3769.63,404.86Zm-60.88,304.4q32.7-20.93,48.7-60.5V583.32H3631.88q-102.74,0-102.73,71.53,0,35,26.63,55.17t74.58,20.17Q3676,730.19,3708.75,709.26Z"/></svg>