<?xml version="1.0" encoding="utf-8"?>
<!-- Generator: Adobe Illustrator 24.0.1, SVG Export Plug-In . SVG Version: 6.00 Build 0)  -->
<svg version="1.1" id="Camada_1" xmlns="http://www.w3.org/2000/svg" xmlns:xlink="http://www.w3.org/1999/xlink" x="0px" y="0px"
	 viewBox="0 0 839.8 203.6" style="enable-background:new 0 0 839.8 203.6;" xml:space="preserve">
<style type="text/css">
	.st0{fill:none;}
	.st1{fill:#0069DB;}
	.st2{fill:#0800A0;}
	.st3{fill:#03034C;}
</style>
<path class="st0" d="M752.9,91.8c-17.3,0-29.8,12.7-29.8,31.7c0,19.5,12.7,33,30,33c17.1,0,29.5-13.3,29.5-32.5
	S770.2,91.8,752.9,91.8z"/>
<path class="st0" d="M611.2,91.8c-17.3,0-29.8,12.7-29.8,31.7c0,19.5,12.7,33,30,33c17.1,0,29.5-13.3,29.5-32.5
	S628.5,91.8,611.2,91.8z"/>
<path class="st0" d="M611.2,91.8c-17.3,0-29.8,12.7-29.8,31.7c0,19.5,12.7,33,30,33c17.1,0,29.5-13.3,29.5-32.5
	S628.5,91.8,611.2,91.8z"/>
<path class="st1" d="M538.8,78.5c-8.2-21.9-26.9-33.8-53.5-33.8c-19.8,0-36,9.2-46.8,23V0h-56.5v199.8h56.6v-75.3
	c0-18.1,11.4-31.4,26.8-31.4c14.3,0,21.9,8.7,21.9,24.6v82h56.3v-24.2c-12.2-13.7-19.2-31.5-19.2-51.6
	C524.1,107.7,529.2,91.7,538.8,78.5z"/>
<path class="st1" d="M682.1,76.3c-15.3-19.5-40.5-31.6-70.7-31.6c-31.5,0-57.5,13-72.7,33.8c3.1,8.2,4.7,17.8,4.7,28.7v68.4
	c15.5,17.4,39.3,28,67.7,28c30.2,0,55.4-12.3,70.7-31.9C660.6,143.4,660.7,104.4,682.1,76.3L682.1,76.3z M611.5,156.5
	c-17.3,0-30-13.5-30-33c0-19,12.5-31.7,29.8-31.7s29.8,13,29.8,32.2S628.5,156.5,611.5,156.5L611.5,156.5z"/>
<path class="st2" d="M538.8,78.5c-9.6,13.2-14.6,29.2-14.5,45.5c0,20.1,7,37.9,19.2,51.6v-68.4C543.5,96.3,541.9,86.7,538.8,78.5z"
	/>
<path class="st1" d="M753.1,44.7c-30.3,0-55.6,12.1-71,31.6c10.5,13.6,16.2,30.3,16,47.4c0.2,17.3-5.5,34.2-16.2,48
	c15.3,19.7,40.5,31.9,70.9,31.9c50.3,0,86.9-34.1,86.9-79.9S803.2,44.7,753.1,44.7z M753.1,156.5c-17.3,0-30-13.5-30-33
	c0-19,12.5-31.7,29.8-31.7s29.8,13,29.8,32.2S770.2,156.5,753.1,156.5z"/>
<path class="st2" d="M682.1,76.3c-21.5,28.2-21.5,67.2-0.2,95.4c10.6-13.7,16.3-30.6,16.2-48C698.3,106.5,692.6,89.8,682.1,76.3z"/>
<path class="st2" d="M335.4,160.3c-15.7,0-28.4-7.3-33-22.2l48.7,1.3v-33.3l-47.9,1.4c5.1-13.3,17.1-19.5,31.7-19.5
	c13,0,22.5,4.1,31.9,14.3l32.5-28.4c-16.3-20.3-40.1-29.2-66.1-29.2c-26.9,0-50.4,10.4-65.8,27.8v42.3c0,17.6-3.6,33.3-10.1,46.4
	c13.8,25.9,42.2,42.4,76,42.4c26,0,49.8-9.2,66.1-29.5l-32.5-28.4C357.3,156.2,347.8,160.3,335.4,160.3z"/>
<path class="st2" d="M267.4,72.4V10.3h-59v106.1c0,19.2-9.5,28.7-22.7,28.7s-22.5-9.5-22.5-28.7V10.3h-59v106.1
	c0,19.2-9.2,28.7-22.5,28.7S59,135.6,59,116.4V44.7H0v70.1c0,53.1,32.2,88.5,78.5,88.5c21.4,0,39.5-7.6,53.1-23.5
	c14.6,16,34.4,23.5,57.4,23.5c30.5,0,55.3-15.8,68.4-42.2c-6-11.4-9.1-24-9-36.9C248.2,103.8,255.4,86,267.4,72.4z"/>
<path class="st3" d="M267.4,72.4c-12,13.6-19.2,31.4-19.2,51.8c-0.1,12.9,3,25.5,9,36.9c6.5-13.1,10.1-28.8,10.1-46.4L267.4,72.4z"
	/>
</svg>
