<svg xmlns="http://www.w3.org/2000/svg" width="296" height="171" viewBox="0 0 296 171">
  <g id="Grupo_522" data-name="Grupo 522" transform="translate(3583 3441)">
    <path id="Exclusão_1" data-name="Exclusão 1" d="M78.5-323a47.2,47.2,0,0,1-18.489-3.733,47.341,47.341,0,0,1-15.1-10.18,47.341,47.341,0,0,1-10.18-15.1A47.2,47.2,0,0,1,31-370.5a47.2,47.2,0,0,1,3.733-18.489,47.341,47.341,0,0,1,10.18-15.1,47.343,47.343,0,0,1,15.1-10.179A47.2,47.2,0,0,1,78.5-418a47.2,47.2,0,0,1,18.489,3.733,47.342,47.342,0,0,1,15.1,10.179,47.34,47.34,0,0,1,10.18,15.1A47.2,47.2,0,0,1,126-370.5a47.2,47.2,0,0,1-3.733,18.489,47.34,47.34,0,0,1-10.18,15.1,47.34,47.34,0,0,1-15.1,10.18A47.2,47.2,0,0,1,78.5-323Zm-3.694-46.125h1.465c.1.67.293,1.8.586,3.37.288,1.535.584,3.235.879,5.054.3,1.877.567,3.554.805,5.126.243,1.6.415,2.763.513,3.443a11.685,11.685,0,0,1,0,2.637c0,1.166.049,2.4.146,3.662a8.831,8.831,0,0,0,.952,3.443,2.6,2.6,0,0,0,2.417,1.538h.292A.6.6,0,0,0,83.3-341c.291-.194.674-.434,1.172-.733a15.719,15.719,0,0,0,1.319-.878l.586-.44.023-.017.563-.423.439-.439v-25.2h22.559c.195,0,.54-.246,1.025-.733a15.065,15.065,0,0,0,1.392-1.611c.438-.584.857-1.2,1.245-1.831a3.225,3.225,0,0,0,.586-1.391,1.844,1.844,0,0,0-.879-1.611,5.521,5.521,0,0,0-2.124-.806c-.831-.147-1.644-.27-2.417-.366a15.545,15.545,0,0,0-1.611-.147c-1.54-.1-3.536-.293-5.933-.586-2.458-.3-4.8-.6-6.958-.879-2.222-.289-4.193-.585-5.86-.878l-2.344-.293-1.465-1.611L79.055-401.5l-2.784-2.93h-.439c-.114,0-.178-.017-.192-.05s.006-.056.046-.1h-.439a.129.129,0,0,1-.147.147h-.293l-.537.537-.927.927a12.14,12.14,0,0,0-1.319,1.465v.439a25.545,25.545,0,0,0,.439,4.688c.292,1.555.637,3.132,1.026,4.687s.731,3.1,1.025,4.614a24.381,24.381,0,0,1,.439,4.614v1.1c0,.437-.025.929-.073,1.464a3.678,3.678,0,0,1-.439,1.465,1.56,1.56,0,0,1-1.1.805c-.784.2-2.189.492-4.175.879L62.795-375.5l-2.584.505-3.788.74c-2.029.4-3.394.683-4.175.878-1.459.292-2.346.662-2.636,1.1a5.1,5.1,0,0,0-.44,2.563,5.3,5.3,0,0,0,.44,2.344c.291.778,1.178,1.172,2.636,1.172a35.742,35.742,0,0,0,5.567-.439c1.842-.29,3.715-.635,5.567-1.025s3.744-.734,5.639-1.026A38.235,38.235,0,0,1,74.806-369.125Z" transform="translate(-3614 -3007)" fill="#006b7a"/>
    <text id="fácil_" data-name="fácil " transform="translate(-3469 -3441)" fill="#006b7a" font-size="100" font-family="IndieFlower, Indie Flower"><tspan x="0" y="97">fácil </tspan></text>
    <text id="contabilidade" transform="translate(-3583 -3326)" fill="rgba(32,106,93,0.3)" font-size="42" font-family="Roboto-Light, Roboto" font-weight="300" letter-spacing="0.06em"><tspan x="0" y="39">contabilidade</tspan></text>
  </g>
</svg>
