<svg xmlns="http://www.w3.org/2000/svg" width="109.225" height="54.921" viewBox="0 0 109.225 54.921">
  <g id="Grupo_677" data-name="Grupo 677" transform="translate(3583 3425)">
    <path id="Caminho_141" data-name="Caminho 141" d="M49.847-380.3a18.73,18.73,0,0,1-7.336-1.481,18.785,18.785,0,0,1-5.991-4.039,18.785,18.785,0,0,1-4.039-5.991A18.73,18.73,0,0,1,31-399.152a18.729,18.729,0,0,1,1.481-7.336,18.785,18.785,0,0,1,4.039-5.991,18.786,18.786,0,0,1,5.991-4.039A18.73,18.73,0,0,1,49.847-418a18.731,18.731,0,0,1,7.337,1.481,18.785,18.785,0,0,1,5.991,4.039,18.784,18.784,0,0,1,4.039,5.991,18.729,18.729,0,0,1,1.481,7.336,18.73,18.73,0,0,1-1.481,7.337,18.784,18.784,0,0,1-4.039,5.991,18.785,18.785,0,0,1-5.991,4.039A18.73,18.73,0,0,1,49.847-380.3Zm-1.466-18.3h.581c.038.266.116.716.232,1.337s.232,1.284.349,2.005c.121.745.225,1.41.32,2.034s.165,1.1.2,1.366a4.637,4.637,0,0,1,0,1.046c0,.463.019.952.058,1.453A3.5,3.5,0,0,0,50.5-388a1.031,1.031,0,0,0,.959.61h.116a.238.238,0,0,0,.175-.058c.115-.077.268-.172.465-.291a6.24,6.24,0,0,0,.523-.349l.232-.174.009-.007.224-.168.174-.174v-10h8.951c.077,0,.214-.1.407-.291a5.978,5.978,0,0,0,.552-.639c.174-.232.34-.476.494-.727a1.28,1.28,0,0,0,.232-.552.732.732,0,0,0-.349-.639,2.191,2.191,0,0,0-.843-.32c-.33-.058-.653-.107-.959-.145a6.176,6.176,0,0,0-.639-.058c-.611-.038-1.4-.116-2.354-.232-.975-.12-1.9-.237-2.761-.349-.882-.115-1.664-.232-2.325-.349l-.93-.116-.581-.639-2.208-7.789-1.1-1.162h-.174c-.045,0-.071-.007-.076-.02s0-.022.018-.038h-.174a.051.051,0,0,1-.058.058h-.116l-.213.213-.368.368a4.817,4.817,0,0,0-.523.581v.174a10.136,10.136,0,0,0,.174,1.86c.116.617.253,1.243.407,1.86s.29,1.229.407,1.831a9.674,9.674,0,0,1,.174,1.831v.436c0,.173-.01.369-.029.581a1.46,1.46,0,0,1-.174.581.619.619,0,0,1-.436.32c-.311.078-.868.2-1.657.349l-2.528.494-1.025.2-1.5.294c-.8.157-1.347.271-1.657.349a1.767,1.767,0,0,0-1.046.436,2.025,2.025,0,0,0-.175,1.017,2.1,2.1,0,0,0,.175.93c.116.309.467.465,1.046.465a14.182,14.182,0,0,0,2.209-.174c.731-.115,1.474-.252,2.209-.407s1.486-.291,2.238-.407A15.177,15.177,0,0,1,48.382-398.606Z" transform="translate(-3614 -3007)" fill="#206a5d"/>
    <path id="Caminho_139" data-name="Caminho 139" d="M12.567,42.206q.814,0,.7.775a.529.529,0,0,1-.019.794,2.391,2.391,0,0,1-1.221.542,10.119,10.119,0,0,1-2.131.155,15.1,15.1,0,0,1-2.79-.329,5.784,5.784,0,0,0,.678,2.751,23.23,23.23,0,0,0,1.492,2.441q.814,1.162,1.511,2.247a3.987,3.987,0,0,1,.7,2.17.663.663,0,0,1-.31.659,1.268,1.268,0,0,1-.7.155,1.546,1.546,0,0,1-.833-.291,3.862,3.862,0,0,1-.814-.717,9,9,0,0,1-.678-.891q-.271-.465-.426-.775L7.278,51,6.6,49.646q-.387-.775-.775-1.608T5.069,46.43q-.368-.775-.639-1.395A8.224,8.224,0,0,1,4,44.143l-.426-.426a4.4,4.4,0,0,1-.717.174q-.523.1-1.1.213t-1.124.232a4.271,4.271,0,0,1-.775.116H-.336a.442.442,0,0,1-.426-.213,1.08,1.08,0,0,1-.116-.523A1.183,1.183,0,0,1-.414,42.71a2.989,2.989,0,0,1,1.124-.5,9.271,9.271,0,0,1,1.376-.213l1.182-.1q-.077-1.162-.116-2.751a23.991,23.991,0,0,1,.155-3.294A22.571,22.571,0,0,1,3.945,32.5a10.772,10.772,0,0,1,1.279-2.964A6.79,6.79,0,0,1,7.336,27.4a5.731,5.731,0,0,1,3.139-.814,5.926,5.926,0,0,1,2.286.523,9.73,9.73,0,0,1,2.306,1.376,8.222,8.222,0,0,1,1.763,1.918,3.9,3.9,0,0,1,.7,2.151h-.891a1.923,1.923,0,0,1-1.376-.581q-.6-.581-1.259-1.3a11.956,11.956,0,0,0-1.395-1.3A2.618,2.618,0,0,0,10.94,28.8a5.006,5.006,0,0,0-2.4.581,5.97,5.97,0,0,0-1.86,1.55A6.77,6.77,0,0,0,5.515,33.1a7.906,7.906,0,0,0-.387,2.441v.387l.7,5.541a.929.929,0,0,0,.426.136q.349.058,1.1.155t2.015.213Q10.63,42.09,12.567,42.206Zm2.6,5.774a4.823,4.823,0,0,1,.387-1.511A5.747,5.747,0,0,1,16.636,44.8a7.443,7.443,0,0,1,1.86-1.453,8.241,8.241,0,0,1,2.654-.911,11.982,11.982,0,0,1,3.487-.039A18.19,18.19,0,0,1,29,43.562v-.387l-.039-.349a4.211,4.211,0,0,0-.581-2.054,7.421,7.421,0,0,0-1.492-1.879,8.576,8.576,0,0,0-1.957-1.356,4.5,4.5,0,0,0-2.015-.523,1.818,1.818,0,0,0-.678.116,3.313,3.313,0,0,0-.562.291q-.271.174-.523.31a1.25,1.25,0,0,1-.6.136q-.077,0-.077-.039l-.077-.077q-.077-.078-.213-.194t-.136-.155a2.659,2.659,0,0,1,.252-1.2,2.136,2.136,0,0,1,.7-.814A3.64,3.64,0,0,1,22,34.9a3.965,3.965,0,0,1,1.182-.174,7.53,7.53,0,0,1,2.964.949,11.6,11.6,0,0,1,2.6,2,13.262,13.262,0,0,1,2.073,2.771A20.543,20.543,0,0,1,32.31,43.7a15.186,15.186,0,0,1,.794,3.391,13.149,13.149,0,0,1,.039,3.332q-.039,0-.232-.019t-.426-.039A2.486,2.486,0,0,1,32.1,50.3l-.194-.039a11.286,11.286,0,0,0-1.821-2.945,10.129,10.129,0,0,0-2-1.763,7.219,7.219,0,0,0-1.841-.891q-.852-.252-1.395-.368-.581,0-1.376.078a13.239,13.239,0,0,0-1.647.271,13.09,13.09,0,0,0-1.724.523,7.274,7.274,0,0,0-1.55.794,3.834,3.834,0,0,0-1.085,1.1,2.719,2.719,0,0,0-.407,1.492A2,2,0,0,0,17.8,50.13a6.013,6.013,0,0,0,1.782,1.046,9.616,9.616,0,0,0,2.131.562,12.946,12.946,0,0,0,1.744.155,19.288,19.288,0,0,0,2.131-.116q1.046-.116,2.073-.271t2.034-.271a17.565,17.565,0,0,1,2.015-.116h.271q.194,0,.407.019t.387.019h.252a.473.473,0,0,1,.349.349,2.824,2.824,0,0,1,.039.465q0,.232-.484.5a8.114,8.114,0,0,1-1.259.542q-.775.271-1.724.562t-1.821.484q-.872.194-1.627.329a7.045,7.045,0,0,1-1.066.136,23.454,23.454,0,0,1-3.449-.271,11.779,11.779,0,0,1-3.332-.988,6.777,6.777,0,0,1-2.5-2A5.232,5.232,0,0,1,15.163,47.98Zm5.5-15.655a2.376,2.376,0,0,1,.62-1.55,9.142,9.142,0,0,1,1.492-1.395q.872-.659,1.8-1.24.852-.581,1.472-1.046.814.387.717.93a2.723,2.723,0,0,1-.814,1.279,25.09,25.09,0,0,1-1.879,1.7q-1.162.969-2.441,2.247a1.122,1.122,0,0,1-.775-.194A1.049,1.049,0,0,1,20.666,32.325Zm14.57,13.562a8.662,8.662,0,0,1,.659-3.313,9.445,9.445,0,0,1,1.8-2.848,8.854,8.854,0,0,1,2.654-1.976,7.248,7.248,0,0,1,3.216-.736,8.413,8.413,0,0,1,1.647.174,6.527,6.527,0,0,1,1.647.562,3.717,3.717,0,0,1,1.279,1.027,2.519,2.519,0,0,1,.5,1.608,3.851,3.851,0,0,1-.1.62,8.279,8.279,0,0,1-.252.93,4.5,4.5,0,0,1-.368.833q-.213.368-.368.368a4.619,4.619,0,0,0-1.007-3.042,3.6,3.6,0,0,0-2.945-1.221,5.511,5.511,0,0,0-2.635.62,5.931,5.931,0,0,0-1.937,1.627,7.433,7.433,0,0,0-1.182,2.267,8.332,8.332,0,0,0-.407,2.577,6.57,6.57,0,0,0,.581,2.945,5.014,5.014,0,0,0,1.589,1.879,7.105,7.105,0,0,0,2.325,1.066,15.723,15.723,0,0,0,2.79.465,28.026,28.026,0,0,0,2.945.077q1.472-.039,2.829-.116a.962.962,0,0,1,.387.155,2.582,2.582,0,0,0,.387.194v.116q0,.077.019.077t.019.039a.9.9,0,0,1-.426.736,3.584,3.584,0,0,1-1.046.5,7,7,0,0,1-1.356.271q-.736.077-1.453.136t-1.259.058H45a15.041,15.041,0,0,1-4.049-.5,8,8,0,0,1-3.061-1.569,7.126,7.126,0,0,1-1.957-2.712A9.941,9.941,0,0,1,35.236,45.887Zm19.53-4.766V40.54q0-.426.019-.891t.019-.891v-.581q-.155-1.2.7-1.2a1.1,1.1,0,0,1,.659.194,1.9,1.9,0,0,1,.5.581,18.466,18.466,0,0,0,.174,3.894q.291,1.879.659,3.72t.7,3.7a22.192,22.192,0,0,1,.329,3.875,2.076,2.076,0,0,1-.329,1.085,1.081,1.081,0,0,1-.988.542q-.5,0-.872-.872a11.819,11.819,0,0,1-.639-2.209q-.271-1.337-.465-2.964T54.94,45.4q-.1-1.492-.136-2.674T54.766,41.121Zm-1.976-9.726q0-.465.271-.6a1.56,1.56,0,0,1,.7-.136,1.043,1.043,0,0,1,.717.329,3.45,3.45,0,0,1,.736.833,2.028,2.028,0,0,1,.329.852q.039.465-.581.542h-.194a5.059,5.059,0,0,1-.969-.077,1.361,1.361,0,0,1-.6-.252,1,1,0,0,1-.31-.523A3.789,3.789,0,0,1,52.789,31.395Zm8.06,22.824a52.676,52.676,0,0,1-.484-5.483q-.1-2.732-.1-5.483t.077-5.464q.077-2.712.039-5.425a.433.433,0,0,1,.232-.426,1.2,1.2,0,0,1,.542-.116.886.886,0,0,1,.62.252,2.294,2.294,0,0,1,.465.62,3.486,3.486,0,0,1,.291.736,2.471,2.471,0,0,1,.1.6q.232,5.541.31,9.242t0,5.967a29.608,29.608,0,0,1-.252,3.352,3.881,3.881,0,0,1-.446,1.472.6.6,0,0,1-.639.31Q61.237,54.3,60.849,54.218Z" transform="translate(-3537.235 -3447.387)" fill="#206a5d"/>
    <path id="Caminho_140" data-name="Caminho 140" d="M5.687,19.34a2.571,2.571,0,0,0,1.7-.574,2.019,2.019,0,0,0,.745-1.485h.936a2.757,2.757,0,0,1-.5,1.469,3.161,3.161,0,0,1-1.233,1.038,3.715,3.715,0,0,1-1.648.374,3.4,3.4,0,0,1-2.746-1.2,4.869,4.869,0,0,1-1.013-3.239v-.293a5.5,5.5,0,0,1,.456-2.3,3.512,3.512,0,0,1,1.306-1.546,3.605,3.605,0,0,1,1.99-.545,3.4,3.4,0,0,1,2.388.863,3.145,3.145,0,0,1,1,2.27H8.137a2.356,2.356,0,0,0-2.458-2.3,2.428,2.428,0,0,0-2.047.952A4.308,4.308,0,0,0,2.9,15.483v.285A4.212,4.212,0,0,0,3.633,18.4,2.445,2.445,0,0,0,5.687,19.34Zm5.793-3.873a5.181,5.181,0,0,1,.492-2.287,3.7,3.7,0,0,1,3.43-2.148,3.622,3.622,0,0,1,2.848,1.233,4.75,4.75,0,0,1,1.09,3.267v.2a5.227,5.227,0,0,1-.492,2.3,3.676,3.676,0,0,1-1.387,1.575,3.8,3.8,0,0,1-2.042.553,3.625,3.625,0,0,1-2.844-1.233,4.739,4.739,0,0,1-1.094-3.267Zm.976.269a4,4,0,0,0,.818,2.592,2.767,2.767,0,0,0,4.28,0,4.127,4.127,0,0,0,.818-2.673v-.187A4.479,4.479,0,0,0,18,13.619a3.008,3.008,0,0,0-1.05-1.3,2.682,2.682,0,0,0-1.546-.46,2.6,2.6,0,0,0-2.124,1.021,4.133,4.133,0,0,0-.822,2.673Zm10.822-4.541.033,1.505a3.5,3.5,0,0,1,1.237-1.241,3.214,3.214,0,0,1,1.636-.427,2.641,2.641,0,0,1,2.108.8,3.6,3.6,0,0,1,.7,2.392V20h-.968V14.213a2.69,2.69,0,0,0-.5-1.758,1.961,1.961,0,0,0-1.575-.578,2.463,2.463,0,0,0-1.6.566,3.313,3.313,0,0,0-1.029,1.526V20h-.968v-8.8ZM34.019,8.94v2.254h1.823v.8H34.019v5.867a1.835,1.835,0,0,0,.264,1.09,1.026,1.026,0,0,0,.883.358,6.059,6.059,0,0,0,.789-.081l.041.8a3.156,3.156,0,0,1-1.042.138A1.737,1.737,0,0,1,33.5,19.58a2.739,2.739,0,0,1-.456-1.713V11.992H31.423v-.8h1.619V8.94ZM44.417,20a4.605,4.605,0,0,1-.187-1.229A3.4,3.4,0,0,1,42.924,19.8a4,4,0,0,1-1.68.362,2.951,2.951,0,0,1-2.055-.708,2.306,2.306,0,0,1-.785-1.79,2.356,2.356,0,0,1,1.07-2.034,5.142,5.142,0,0,1,2.982-.749h1.766v-1a1.929,1.929,0,0,0-.582-1.485,2.4,2.4,0,0,0-1.7-.541,2.655,2.655,0,0,0-1.684.521,1.547,1.547,0,0,0-.667,1.253l-.976-.008a2.264,2.264,0,0,1,.976-1.819,3.76,3.76,0,0,1,2.4-.769,3.43,3.43,0,0,1,2.323.736,2.643,2.643,0,0,1,.875,2.055v4.166a5.168,5.168,0,0,0,.269,1.912V20Zm-3.06-.7a3.269,3.269,0,0,0,1.745-.472,2.777,2.777,0,0,0,1.119-1.261V15.629H42.481a4.363,4.363,0,0,0-2.278.533,1.6,1.6,0,0,0-.822,1.42,1.574,1.574,0,0,0,.549,1.229A2.069,2.069,0,0,0,41.358,19.3Zm14.516-3.613a5.3,5.3,0,0,1-.911,3.267,2.911,2.911,0,0,1-2.449,1.208,3.164,3.164,0,0,1-2.783-1.367L49.689,20h-.911V7.5h.968v4.972a3.06,3.06,0,0,1,2.75-1.44,2.938,2.938,0,0,1,2.47,1.192,5.366,5.366,0,0,1,.907,3.316Zm-.976-.171a4.587,4.587,0,0,0-.675-2.689,2.2,2.2,0,0,0-1.9-.948,2.68,2.68,0,0,0-1.587.46,2.8,2.8,0,0,0-.985,1.347v3.971a2.609,2.609,0,0,0,2.588,1.66,2.186,2.186,0,0,0,1.884-.952A4.9,4.9,0,0,0,54.9,15.515ZM60.113,20h-.976v-8.8h.976ZM58.965,8.647a.659.659,0,0,1,.179-.468.636.636,0,0,1,.488-.191.641.641,0,0,1,.675.659.637.637,0,0,1-.183.464.657.657,0,0,1-.492.187.628.628,0,0,1-.667-.651ZM64.848,20h-.976V7.5h.976Zm4.735,0h-.976v-8.8h.976ZM68.435,8.647a.659.659,0,0,1,.179-.468.636.636,0,0,1,.488-.191.641.641,0,0,1,.675.659.637.637,0,0,1-.183.464A.657.657,0,0,1,69.1,9.3a.628.628,0,0,1-.667-.651Zm4.4,6.868a5.307,5.307,0,0,1,.915-3.267,2.946,2.946,0,0,1,2.486-1.217,3.062,3.062,0,0,1,2.718,1.408V7.5h.968V20h-.911l-.041-1.172a3.145,3.145,0,0,1-2.75,1.335,2.936,2.936,0,0,1-2.453-1.225,5.334,5.334,0,0,1-.932-3.308Zm.985.171a4.591,4.591,0,0,0,.675,2.657,2.184,2.184,0,0,0,1.9.972,2.621,2.621,0,0,0,2.555-1.587V13.595a2.6,2.6,0,0,0-2.539-1.717,2.211,2.211,0,0,0-1.912.964A4.907,4.907,0,0,0,73.821,15.686ZM89.045,20a4.605,4.605,0,0,1-.187-1.229A3.4,3.4,0,0,1,87.552,19.8a4,4,0,0,1-1.68.362,2.951,2.951,0,0,1-2.055-.708,2.306,2.306,0,0,1-.785-1.79,2.357,2.357,0,0,1,1.07-2.034,5.142,5.142,0,0,1,2.982-.749H88.85v-1a1.929,1.929,0,0,0-.582-1.485,2.4,2.4,0,0,0-1.7-.541,2.655,2.655,0,0,0-1.684.521,1.547,1.547,0,0,0-.667,1.253l-.976-.008A2.264,2.264,0,0,1,84.22,11.8a3.76,3.76,0,0,1,2.4-.769,3.43,3.43,0,0,1,2.323.736,2.642,2.642,0,0,1,.875,2.055v4.166a5.168,5.168,0,0,0,.269,1.912V20Zm-3.06-.7a3.269,3.269,0,0,0,1.745-.472,2.777,2.777,0,0,0,1.119-1.261V15.629H87.109a4.363,4.363,0,0,0-2.278.533,1.6,1.6,0,0,0-.822,1.42,1.574,1.574,0,0,0,.549,1.229A2.069,2.069,0,0,0,85.986,19.3Zm7.038-3.784a5.307,5.307,0,0,1,.915-3.267,2.946,2.946,0,0,1,2.486-1.217,3.062,3.062,0,0,1,2.718,1.408V7.5h.968V20H99.2l-.041-1.172a3.145,3.145,0,0,1-2.75,1.335,2.936,2.936,0,0,1-2.453-1.225,5.334,5.334,0,0,1-.932-3.308Zm.985.171a4.591,4.591,0,0,0,.675,2.657,2.184,2.184,0,0,0,1.9.972,2.621,2.621,0,0,0,2.555-1.587V13.595A2.6,2.6,0,0,0,96.6,11.878a2.211,2.211,0,0,0-1.912.964A4.907,4.907,0,0,0,94.008,15.686Zm13.076,4.476a3.822,3.822,0,0,1-2.03-.553,3.771,3.771,0,0,1-1.412-1.542,4.808,4.808,0,0,1-.5-2.217V15.5a5.181,5.181,0,0,1,.492-2.287,3.917,3.917,0,0,1,1.371-1.6,3.383,3.383,0,0,1,1.9-.582,3.179,3.179,0,0,1,2.543,1.094,4.44,4.44,0,0,1,.94,2.991v.545h-6.282v.187a3.687,3.687,0,0,0,.858,2.494,2.731,2.731,0,0,0,2.16,1,3.173,3.173,0,0,0,1.379-.285,3.059,3.059,0,0,0,1.086-.911l.61.464A3.553,3.553,0,0,1,107.084,20.162Zm-.179-8.3a2.434,2.434,0,0,0-1.851.806,3.722,3.722,0,0,0-.915,2.165h5.281v-.106a3.231,3.231,0,0,0-.724-2.067A2.244,2.244,0,0,0,106.9,11.862Z" transform="translate(-3584.163 -3390.241)" fill="#206a5d"/>
  </g>
</svg>
