<?xml version="1.0" encoding="utf-8"?>
<!-- Generator: Adobe Illustrator 23.0.1, SVG Export Plug-In . SVG Version: 6.00 Build 0)  -->
<svg version="1.1" id="Camada_1" xmlns="http://www.w3.org/2000/svg" xmlns:xlink="http://www.w3.org/1999/xlink" x="0px" y="0px"
	 viewBox="0 0 1000 1000" style="enable-background:new 0 0 1000 1000;" xml:space="preserve">
<style type="text/css">
	.st0{fill:#111111;}
	.st1{fill:#EEEEEE;}
</style>
<g>
	<g>
		<rect x="5.2" y="5.2" class="st0" width="989.6" height="989.6"/>
		<path class="st0" d="M989.8,10.2v979.6H10.2V10.2H989.8 M999.8,0.2H0.2v999.6h999.6V0.2L999.8,0.2z"/>
	</g>
	<g>
		<path class="st1" d="M510.4,504.8c28.6,26.6,42.9,61.3,42.9,104c0,29.8-7.2,56.3-21.6,79.4c-14.4,23.1-35.8,41.4-64.1,54.8
			c-28.3,13.4-62.9,20.1-103.6,20.1c-37.8,0-73.4-6.1-107-18.3c-33.5-12.2-60.5-28.4-80.9-48.8l26.1-42.5
			c17.4,17.9,40.5,32.4,69.3,43.6c28.8,11.2,59.6,16.8,92.4,16.8c42.7,0,75.8-9.3,99.2-28c23.4-18.6,35-44.4,35-77.2
			c0-32.3-11.7-57.7-35-76c-23.4-18.4-58.7-27.6-105.9-27.6H320v-39.5l144.6-181.2H197.7v-47.7h335.5v38L385.6,460.5
			C440.2,463.5,481.9,478.3,510.4,504.8z"/>
		<path class="st1" d="M732.6,383.7c24.6-13.4,55-20.1,91.3-20.1V415l-12.7-0.7c-41.3,0-73.6,12.7-96.9,38
			c-23.4,25.3-35,60.9-35,106.6v199.8h-52.9V366.6h50.7v76.8C689.5,417,708,397.1,732.6,383.7z"/>
	</g>
</g>
</svg>
